PathFileType	4	(X/Y/Z)	SUBJ82_3_walk_RCNL2025.trc
DataRate	CameraRate	NumFrames	NumMarkers	Units	OrigDataRate	OrigDataStartFrame	OrigNumFrames
100	100	7	25	mm	100	141	225
Frame#	Time	R_Shoulder			L_Shoulder			C7			J_Notch			R_Elbow			L_Elbow			R_Wrist			L_Wrist			R_Asis			L_Asis			Sacral			Thoracic			Sternum			R_Thigh_Lateral			R_Knee_Lateral			R_Shank_Lateral			R_Ankle_Lateral			R_Heel			R_Toe			L_Thigh_Lateral			L_Knee_Lateral			L_Shank_Lateral			L_Ankle_Lateral			L_Heel			L_Toe		
		X1	Y1	Z1	X2	Y2	Z2	X3	Y3	Z3	X4	Y4	Z4	X5	Y5	Z5	X6	Y6	Z6	X7	Y7	Z7	X8	Y8	Z8	X9	Y9	Z9	X10	Y10	Z10	X11	Y11	Z11	X12	Y12	Z12	X13	Y13	Z13	X14	Y14	Z14	X15	Y15	Z15	X16	Y16	Z16	X17	Y17	Z17	X18	Y18	Z18	X19	Y19	Z19	X20	Y20	Z20	X21	Y21	Z21	X22	Y22	Z22	X23	Y23	Z23	X24	Y24	Z24	X25	Y25	Z25
141	1.40000000	21.500793	1362.464355	501.982452	94.877037	1396.417480	100.790154	4.442988	1474.281250	302.932648	126.381439	1353.476685	310.711456	-112.639603	1039.476807	524.400635	97.260857	1055.771729	-5.928707	-86.792252	779.970978	495.477524	290.952576	881.548126	19.762913	119.370293	951.465088	423.971558	121.674240	954.589722	154.257095	-62.038532	966.845337	291.589325	-87.658073	1242.805664	269.600403	152.533951	1178.114746	301.685425	202.202866	545.065552	473.237488	234.652039	468.532135	424.088135	279.310638	247.778198	478.523346	347.060394	76.157799	389.128967	317.384338	40.019051	340.426147	487.608063	83.295288	372.839722	-98.801590	546.774719	113.210983	-121.016266	475.733856	158.335526	-242.747681	275.448517	126.441086	-356.256104	124.268372	197.567490	-405.529541	131.840622	245.825989	-249.662659	42.228004	240.609680
142	1.41000000	37.935734	1362.980347	503.432678	110.988312	1397.140991	102.095840	20.410639	1474.961304	304.467010	142.676651	1354.645996	312.121155	-94.075005	1039.262329	526.276245	110.293015	1056.074951	-3.758911	-67.043303	779.822937	497.808807	301.548431	879.076080	21.585598	135.892517	953.074097	425.304962	138.967850	954.235840	155.767731	-45.257713	967.954224	292.258362	-70.855316	1243.247314	270.446686	169.514984	1179.366943	303.099792	219.474960	547.135803	474.331360	250.813950	469.951294	425.218781	291.178833	248.324600	478.662750	351.082367	75.095634	388.767090	319.793488	40.292747	339.766052	491.807068	76.301926	371.129730	-81.428749	546.582153	113.467674	-103.848709	475.847198	158.057510	-231.024414	279.613251	125.560966	-348.790466	131.816467	195.963013	-396.972443	141.852921	244.282532	-248.201599	42.736565	240.654373
143	1.42000000	54.538754	1363.981201	504.851837	127.210274	1398.328247	103.382256	36.495914	1476.103882	305.976501	159.038757	1356.268188	313.487274	-75.174965	1039.503418	528.209290	123.066444	1056.858643	-1.534980	-46.888306	780.138580	500.323929	311.376678	876.615723	23.379508	152.164337	955.103882	426.731598	156.188324	954.317017	157.404129	-28.636503	969.449280	292.719604	-54.042034	1244.183594	271.250092	186.468994	1181.045166	304.468445	235.890625	549.291870	475.449829	266.311859	471.564148	426.401917	302.702209	249.216599	479.134094	354.427277	74.534142	388.670135	321.761993	40.848175	339.392822	495.268433	70.129974	369.662170	-62.627422	546.168152	113.687035	-85.123413	475.761414	157.759216	-217.772766	284.013855	124.692917	-339.971313	140.001556	194.351135	-386.824677	152.559128	242.777267	-246.103577	43.748409	240.557465
144	1.43000000	71.296822	1365.462036	506.214600	143.522369	1399.961670	104.637329	52.661945	1477.678833	307.428986	175.431992	1358.292847	314.783508	-55.986946	1040.206421	530.195312	135.600525	1058.122925	0.724532	-26.348351	780.931854	502.998886	320.445816	874.204407	25.143540	168.132446	957.506775	428.249969	173.248291	954.838501	159.142914	-12.233094	971.279297	292.979858	-37.283253	1245.596191	272.014740	203.315445	1183.088135	305.764435	251.448578	551.496216	476.602722	281.041718	473.283600	427.615021	313.754578	250.315964	479.892761	357.162811	74.390030	388.761353	323.389008	41.574211	339.245972	498.045044	64.910889	368.414459	-42.372047	545.508484	113.858925	-64.794579	475.440582	157.440460	-202.896057	288.616486	123.860283	-329.661865	148.776627	192.780212	-374.991821	163.843933	241.369080	-243.080780	45.406452	240.231018
145	1.44000000	88.193596	1367.401978	507.496796	159.891342	1402.007935	105.848846	68.863625	1479.642944	308.794617	191.818787	1360.658203	315.983673	-36.564976	1041.361572	532.238708	147.912476	1059.850220	2.994904	-5.445353	782.203217	505.808044	328.774963	871.876831	26.878075	183.770020	960.219299	429.851776	190.075226	955.791443	160.953415	3.911935	973.385803	293.063843	-20.639227	1247.449829	272.751801	219.983414	1185.426270	306.962433	266.115997	553.687317	477.778473	294.878632	475.006104	428.824463	324.151154	251.473068	480.857422	359.358795	74.553207	388.951843	324.740906	42.363533	339.254486	500.197296	60.690548	367.350464	-20.707890	544.613098	113.982872	-42.885731	474.885254	157.104401	-186.345154	293.388092	123.088570	-317.738556	158.054031	191.305023	-361.416260	175.539825	240.123230	-238.795731	47.823250	239.587509
146	1.45000000	105.207420	1369.764404	508.677216	176.269547	1404.418335	107.003334	85.051094	1481.944946	310.048676	208.160507	1363.298218	317.063263	-16.966030	1042.942017	534.351074	160.016785	1062.004028	5.246081	15.796951	783.937653	508.724533	336.395767	869.662933	28.584411	199.076462	963.165894	431.520721	206.615891	957.153992	162.799301	19.776083	975.709717	293.013458	-4.161481	1249.695801	273.478638	236.417297	1187.989624	308.040802	279.828674	555.788452	478.944916	307.696533	476.629669	429.989319	333.681763	252.557632	481.927368	361.093323	74.906929	389.154938	325.860138	43.127636	339.351776	501.798370	57.437878	366.428894	2.246140	543.529236	114.071487	-19.490767	474.138489	156.759094	-168.120895	298.295990	122.405502	-304.096741	167.699600	189.983734	-346.076294	187.426804	239.106979	-232.877701	51.057209	238.554367
147	1.46000000	122.308968	1372.499756	509.739258	192.595245	1407.131470	108.084991	101.174095	1484.530273	311.173615	224.418564	1366.150146	318.001282	2.754022	1044.905518	536.548340	171.924698	1064.529175	7.444679	37.352388	786.105225	511.721115	343.353149	867.586487	30.263875	214.073227	966.265198	433.232574	222.838318	958.894470	164.641373	35.353519	978.198486	292.882751	12.110335	1252.277222	274.216125	252.580353	1190.716187	308.983704	292.512390	557.724243	480.056610	319.393982	478.071625	431.067413	342.152924	253.479691	483.001862	362.451141	75.344086	389.298553	326.771149	43.804729	339.487335	502.932709	55.061005	365.611450	26.303802	542.340027	114.150925	5.232977	473.286316	156.417892	-148.273376	303.307648	121.839516	-288.657013	177.530807	188.872833	-328.982300	199.237900	238.382721	-224.945969	55.094173	237.088699
